<svg width="500" height="500" viewBox="0 0 500 500" fill="none" xmlns="http://www.w3.org/2000/svg">
<g clip-path="url(#clip0_232_1736)">
<path d="M465.775 408.705C412.64 384.709 410.618 281.71 410.579 279.112V210.012C410.579 143.507 369.94 86.3196 312.191 61.9699C312.067 27.7778 284.219 -1.52588e-05 250.001 -1.52588e-05C215.783 -1.52588e-05 187.936 27.7794 187.811 61.9682C130.064 86.3179 89.4242 143.505 89.4242 210.01V279.11C89.3866 281.709 87.3638 384.707 34.2272 408.703C28.1741 411.438 24.8473 418.027 26.2468 424.52C27.6447 431.015 33.3874 435.653 40.0303 435.653H174.736C177.498 450.844 184.681 464.976 195.667 476.423C210.259 491.626 229.555 499.998 249.999 499.998C270.444 499.998 289.741 491.626 304.331 476.423C315.318 464.975 322.501 450.842 325.261 435.653H459.967C466.61 435.653 472.352 431.015 473.752 424.52C475.153 418.027 471.828 411.439 465.775 408.705ZM395.78 359.363C401.366 376.297 409.275 393.304 420.491 407.456H79.51C90.7241 393.305 98.6334 376.3 104.219 359.363H395.78ZM250.001 28.1986C265.479 28.1986 278.566 38.5989 282.661 52.7754C272.112 50.5875 261.188 49.4339 250.001 49.4339C238.814 49.4339 227.891 50.5867 217.342 52.7754C221.438 38.5997 234.524 28.1986 250.001 28.1986ZM117.623 279.197V210.009C117.623 137.017 177.007 77.6325 250.001 77.6325C322.996 77.6325 382.38 137.017 382.38 210.009V279.312C382.399 281.433 382.729 303.723 388.346 331.162H111.653C117.274 303.697 117.606 281.367 117.623 279.197ZM250.001 471.802C228.481 471.802 209.699 456.286 203.67 435.654H296.331C290.302 456.286 271.523 471.802 250.001 471.802Z" fill="black"/>
<path d="M250.001 97.4144C189.339 97.4144 139.987 146.765 139.987 207.426C139.987 215.213 146.3 221.526 154.087 221.526C161.874 221.526 168.186 215.213 168.186 207.426C168.186 162.314 204.888 125.613 250.002 125.613C257.789 125.613 264.102 119.3 264.102 111.513C264.101 103.726 257.788 97.4144 250.001 97.4144Z" fill="black"/>
</g>
<defs>
<clipPath id="clip0_232_1736">
<rect width="500" height="500" fill="white"/>
</clipPath>
</defs>
</svg>
